<svg width="1168" height="338" viewBox="0 0 1168 338" fill="none" xmlns="http://www.w3.org/2000/svg">
<g opacity="0.1">
<g opacity="0.3">
<path d="M104.181 580.815C141.853 606.115 166.44 642.402 188.027 674.444C212.53 710.731 233.783 742.108 266.955 747.184C270.038 747.684 273.206 747.85 276.373 747.85C301.96 747.85 332.381 733.119 370.97 702.076C399.89 678.772 423.977 657.633 445.23 638.907C490.07 599.374 522.491 570.827 558.33 561.589C594.918 552.102 635.091 562.089 696.933 595.962C747.44 623.676 807.699 642.735 862.123 648.228C887.46 650.808 910.463 650.309 928.716 646.647C947.969 642.818 961.471 635.911 968.722 626.007C978.64 612.441 981.057 587.223 935.967 544.029C882.043 492.345 820.7 486.103 755.775 479.528C712.768 475.2 668.262 470.623 623.339 452.563C572.498 432.172 528.409 396.718 488.486 344.368C458.982 305.668 424.561 287.358 388.805 291.436C364.469 294.183 340.549 306.999 317.712 329.387C294.792 352.025 274.122 383.235 256.453 422.185C243.285 451.065 228.783 465.879 211.863 467.377C175.275 470.623 132.936 409.202 92.0963 349.778C71.6768 320.066 50.5904 289.439 30.5042 267.467C20.086 256.065 10.5847 247.659 1.66675 242.083V245.162C29.7541 263.638 60.2585 307.915 90.0127 351.193C110.516 380.988 131.769 411.865 152.188 434.336C174.025 458.305 192.694 470.04 209.113 470.04C210.113 470.04 211.113 469.957 212.113 469.874C229.949 468.292 245.202 453.062 258.703 423.267C276.289 384.567 296.709 353.606 319.462 331.218C341.882 309.163 365.302 296.596 389.055 293.933C423.81 290.021 457.565 307.998 486.486 345.949C526.658 398.715 571.165 434.336 622.339 454.893C667.595 473.12 712.268 477.614 755.441 482.025C819.95 488.6 880.876 494.758 934.217 545.86C978.056 587.889 976.056 611.858 966.721 624.592C953.053 643.151 914.047 651.058 862.373 645.815C808.282 640.322 748.357 621.346 698.1 593.798C635.674 559.592 595.002 549.605 557.663 559.259C521.241 568.664 488.653 597.377 443.563 637.159C422.31 655.885 398.307 677.024 369.386 700.245C326.547 734.7 294.125 748.849 267.288 744.771C235.2 739.944 214.28 708.983 190.027 673.113C168.274 640.904 143.604 604.451 105.515 578.817C73.9271 557.594 43.8394 546.941 15.7521 546.941C11.0014 546.941 6.33408 547.274 1.66675 547.857V550.354C33.2546 546.109 67.6762 556.346 104.181 580.815Z" fill="white"/>
<path d="M1166.33 566.583C1160.42 560.424 1153.66 554.099 1146 547.774C1116.83 523.721 1079.82 503.913 1035.98 488.849C981.223 470.04 915.631 458.555 841.037 454.726C798.364 452.563 716.519 444.989 647.426 418.44C574.665 390.559 534.326 349.362 527.659 296.014C519.907 234.259 527.492 195.975 551.579 175.418C577.916 152.947 625.589 151.948 697.266 172.589C747.023 186.904 787.279 206.545 819.617 222.358C851.538 238.005 876.792 250.322 899.295 252.486C923.715 254.816 942.801 244.912 961.137 220.361C972.806 204.714 982.057 189.9 990.225 176.833C1006.64 150.45 1018.56 131.391 1037.98 124.317C1058.48 116.827 1086.24 123.152 1130.91 145.457C1143.66 151.782 1155.41 158.856 1166.33 166.18V163.184C1155.75 156.11 1144.33 149.368 1132.08 143.21C1086.74 120.572 1058.4 114.247 1037.15 121.904C1016.9 129.311 1004.89 148.619 988.141 175.418C980.057 188.402 970.805 203.133 959.22 218.779C921.548 269.298 883.626 250.738 820.784 220.028C788.362 204.131 747.94 184.407 698.016 170.092C625.423 149.285 576.999 150.367 549.995 173.421C525.242 194.56 517.407 233.594 525.242 296.263C532.076 350.61 572.915 392.473 646.592 420.77C716.019 447.403 798.197 454.976 840.953 457.223C915.297 460.968 980.557 472.454 1035.06 491.18C1078.57 506.16 1115.33 525.802 1144.25 549.605C1152.75 556.596 1160.08 563.587 1166.33 570.245V566.583V566.583Z" fill="white"/>
<path d="M1166.33 513.568C1148.66 500.335 1127.41 487.018 1103.32 474.451C1034.9 438.664 954.22 413.779 876.292 404.458C797.364 394.97 739.772 384.567 695.099 371.583C638.008 355.104 602.003 334.547 585 308.914C573.498 291.519 570.998 271.462 577.416 249.157C582.25 232.678 591.084 221.775 604.503 215.866C649.926 195.726 737.022 237.921 813.866 275.124C841.953 288.773 868.541 301.59 891.127 310.412C929.216 325.309 952.636 328.638 969.472 321.398C985.724 314.407 995.059 298.261 1007.89 275.873C1015.64 262.39 1024.4 247.16 1036.73 230.348C1049.9 212.371 1066.57 202.966 1086.32 202.384C1113.33 201.635 1142.58 217.531 1166.33 235.009V231.929C1129.41 205.047 1102.82 199.471 1086.32 199.887C1065.82 200.47 1048.48 210.207 1034.81 228.85C1022.4 245.745 1013.64 261.142 1005.81 274.624C980.64 318.318 969.138 338.293 892.044 308.081C869.541 299.259 843.037 286.442 814.95 272.877C737.605 235.425 649.926 192.979 603.503 213.619C589.501 219.778 579.916 231.596 574.999 248.574C568.331 271.545 570.915 292.352 582.833 310.412C600.252 336.462 636.674 357.351 694.432 373.997C739.272 386.98 797.03 397.383 876.042 406.871C953.636 416.193 1033.98 440.994 1102.16 476.615C1126.58 489.432 1148.41 503.164 1166.33 516.813V513.568Z" fill="white"/>
<path d="M1166.33 475.866C1118.83 434.669 1054.4 418.19 1003.89 405.373C954.886 392.889 919.548 383.901 923.382 359.599C924.465 352.524 934.3 353.024 951.552 354.522C967.555 355.853 987.391 357.601 1006.14 351.276C1028.31 343.786 1043.57 326.891 1052.73 299.592C1059.15 280.45 1069.4 269.464 1083.07 267.134C1108.07 262.806 1140.91 287.108 1166.42 311.244V307.748C1165.75 307.166 1165.17 306.5 1164.5 305.917C1130.83 274.957 1103.32 261.058 1082.65 264.637C1067.99 267.134 1057.15 278.619 1050.4 298.76C1030.23 358.766 983.057 354.688 951.802 352.025C934.8 350.527 922.465 349.528 920.965 359.266C919.048 371.583 925.799 381.071 942.468 388.978C957.303 396.052 978.64 401.545 1003.31 407.787C1054.23 420.77 1119.16 437.332 1166.42 479.278V475.866H1166.33Z" fill="white"/>
<path fill-rule="evenodd" clip-rule="evenodd" d="M880.901 353.853C881.188 354.057 881.349 354.171 881.376 354.189C891.294 361.596 894.711 367.672 891.794 372.332C888.46 377.243 877.709 379.157 863.54 379.157C844.12 379.157 818.117 375.578 795.28 371.001C739.689 359.931 686.681 341.122 653.51 320.732C616.171 297.761 603.503 272.877 616.921 248.741C620.505 242.249 626.506 238.088 634.674 236.257C661.011 230.348 710.601 248.491 781.945 290.021C832.082 319.147 875.881 350.284 880.901 353.853ZM858.789 376.494C881.876 377.076 888.043 373.165 889.627 370.834C892.294 366.756 885.793 360.681 879.875 356.27C877.708 354.688 714.352 237.672 645.259 237.672C641.591 237.672 638.258 238.005 635.174 238.67C627.756 240.335 622.339 244.08 619.088 249.906C612.421 261.891 612.504 274.042 619.422 286.11C625.672 297.095 637.591 307.998 654.76 318.568C687.681 338.792 740.356 357.518 795.697 368.504C819.45 373.248 841.87 376.077 858.789 376.494Z" fill="white"/>
<path fill-rule="evenodd" clip-rule="evenodd" d="M794.138 332.784C794.741 333.157 795.076 333.364 795.113 333.382C795.184 333.439 795.264 333.501 795.351 333.57C796.79 334.702 800.177 337.367 798.447 339.957C797.364 341.622 794.03 342.204 789.529 342.204C777.194 342.204 756.275 337.377 750.94 336.129C723.186 329.471 697.433 319.899 682.097 310.495C666.678 301.007 661.344 291.769 666.178 283.03C667.345 280.949 669.345 279.535 672.013 278.869C682.847 276.039 706.851 284.445 743.439 303.67C767.505 316.315 789.334 329.813 794.138 332.784ZM751.441 333.715C779.778 340.456 794.947 340.623 796.364 338.542C796.447 338.376 796.28 337.377 793.613 335.463C791.28 333.965 706.101 280.866 676.68 280.866C675.096 280.866 673.763 281.033 672.513 281.366C670.429 281.865 669.095 282.864 668.262 284.279C664.178 291.602 669.179 299.675 683.264 308.331C698.35 317.652 723.853 327.14 751.441 333.715Z" fill="white"/>
<path d="M83.0951 246.743C101.848 281.199 121.934 316.654 141.52 342.537C163.106 370.917 181.859 384.733 198.945 384.733C199.112 384.733 199.278 384.733 199.445 384.733C216.447 384.483 231.45 370.834 245.285 343.203C274.372 285.194 308.794 249.74 344.882 240.834C369.553 234.759 394.89 240.751 420.143 258.811C439.563 272.71 453.398 277.288 462.233 272.877C475.318 266.385 476.068 242.166 476.901 214.202C477.818 183.491 478.818 148.619 497.238 132.64C505.822 125.233 517.324 122.486 532.409 124.151C571.915 128.645 609.504 122.653 641.091 107.006C671.096 92.1086 694.349 69.3877 708.268 41.2572C721.52 14.5415 725.354 -15.5865 719.519 -45.7145C717.102 -58.2817 713.018 -70.5992 707.434 -82.6671H704.601C724.103 -41.5532 725.187 1.72459 706.101 40.1752C692.432 67.8064 669.596 90.1112 640.091 104.759C608.92 120.239 571.748 126.065 532.743 121.654C517.157 119.906 504.655 122.902 495.654 130.726C476.401 147.371 475.401 182.825 474.401 214.035C473.651 240.085 472.901 264.72 461.149 270.546C453.148 274.541 440.229 269.964 421.56 256.647C395.64 238.171 369.636 232.012 344.216 238.254C307.377 247.409 272.372 283.28 243.035 341.955C229.616 368.67 215.364 381.82 199.445 382.07C199.278 382.07 199.112 382.07 198.945 382.07C162.69 382.07 122.934 314.573 85.262 245.329C62.1754 202.883 34.0881 173.754 1.66675 158.274V161.02C33.2546 176.667 60.5918 205.297 83.0951 246.743Z" fill="white"/>
<path d="M114.516 139.881C128.935 139.881 141.603 137.8 152.022 133.555C175.775 123.901 187.61 104.176 187.193 74.7142C186.777 45.8346 194.528 24.3622 210.863 9.13174C251.119 -28.6531 337.798 -22.1614 429.645 -15.1704C443.147 -14.1717 457.149 -13.0897 470.9 -12.1742C484.319 -11.2587 496.654 -10.8426 507.989 -10.8426C559.747 -10.8426 589.084 -20.0808 595.502 -38.4738C600.002 -51.4572 592.501 -67.187 580.5 -82.5006H577.249C589.584 -67.2702 597.419 -51.7068 593.168 -39.2229C585.834 -18.0833 544.828 -9.76067 471.151 -14.5878C457.399 -15.5033 443.397 -16.5852 429.895 -17.584C337.548 -24.575 250.286 -31.1499 209.196 7.38399C192.361 23.197 184.36 45.2521 184.776 74.8807C185.193 103.178 173.858 122.237 151.188 131.391C122.017 143.21 74.5938 137.8 20.9195 116.577C14.5019 114.08 8.16767 111.334 1.83344 108.504V111.251C7.83429 113.997 13.9185 116.577 20.0027 118.908C55.091 132.723 87.7624 139.881 114.516 139.881Z" fill="white"/>
<path d="M66.7594 60.649C96.7637 58.818 122.184 43.0882 142.437 13.8757L145.771 9.04852C170.358 -26.406 182.693 -44.2164 200.945 -51.6236C219.198 -59.0308 243.951 -56.3675 293.292 -50.9578C299.293 -50.292 305.71 -49.6262 312.461 -48.8771C370.886 -42.5519 413.226 -40.4713 441.896 -42.4687C469.484 -44.3829 485.153 -49.9591 491.153 -60.0295C494.821 -66.1882 494.654 -73.6786 491.653 -82.5006H489.07C492.07 -74.0115 492.404 -66.9373 488.986 -61.2779C483.486 -52.0397 468.067 -46.7132 441.73 -44.8823C413.226 -42.968 371.053 -45.0487 312.711 -51.3739C305.96 -52.123 299.543 -52.7888 293.542 -53.4546C243.785 -58.9475 218.864 -61.694 199.945 -53.9539C181.026 -46.2139 168.524 -28.237 143.687 7.63367L140.353 12.4608C120.517 41.0075 95.7635 56.4044 66.5927 58.1522C51.5906 59.0677 29.8374 56.4876 1.66675 43.3378V46.0843C26.4203 57.4864 46.2565 60.8154 61.0086 60.8154C63.0088 60.8154 64.9258 60.7322 66.7594 60.649Z" fill="white"/>
<path d="M614.754 -21.1627C598.169 11.3789 525.158 6.96786 524.325 6.88464C483.402 6.88464 445.397 3.9717 411.892 1.30846C362.052 -2.60319 318.962 -5.93225 287.124 2.30717C270.288 6.63495 257.203 14.0421 247.202 24.8616C236.367 36.5133 229.033 52.2431 224.699 72.8C210.28 141.545 172.524 149.785 142.103 156.359C123.767 160.354 107.932 163.767 102.681 180.079C97.9305 194.977 103.431 224.605 116.85 255.565C131.185 288.773 150.688 314.49 169.024 324.311C174.941 327.473 180.859 329.054 186.443 329.054C197.111 329.054 207.196 323.395 216.031 312.326C229.449 295.514 240.368 277.204 250.952 259.477C270.705 226.353 287.708 197.806 314.128 191.398C330.38 187.486 349.3 192.313 371.803 206.379C401.641 224.938 422.31 230.764 435.062 224.189C450.898 216.033 452.481 190.815 454.148 164.016C456.398 128.062 458.732 90.8602 495.737 92.5247C504.239 92.8576 512.406 93.1073 520.324 93.1073C600.336 93.1073 652.26 74.2149 674.68 36.7629C692.349 7.38399 687.848 -28.0705 681.014 -52.5391C677.763 -64.274 673.679 -74.5941 670.096 -82.5839H667.345C671.012 -74.5941 675.263 -63.8579 678.597 -51.7901C690.682 -8.26259 681.931 19.7015 672.513 35.5145C648.342 75.7962 588.834 94.1892 495.821 90.1111C478.068 89.3621 466.233 96.8525 459.649 113.082C453.898 127.147 452.731 145.873 451.648 164.016C450.064 190.066 448.481 214.618 433.895 222.108C421.977 228.267 402.141 222.441 373.053 204.381C349.883 189.983 330.38 184.989 313.461 189.151C286.041 195.809 268.705 224.772 248.702 258.395C238.201 276.039 227.282 294.266 213.947 310.911C200.945 327.14 186.193 330.885 170.024 322.23C152.188 312.659 133.019 287.441 118.933 254.733C106.015 224.772 100.347 195.143 104.848 180.994C109.682 166.014 124.101 162.851 142.437 158.939C157.772 155.61 175.108 151.865 190.61 140.047C208.53 126.398 220.448 104.593 226.949 73.3826C235.033 34.6823 253.703 13.5428 287.541 4.80397C301.71 1.142 318.295 -0.189621 336.715 -0.189621C359.051 -0.189621 384.305 1.80782 411.475 3.88848C445.063 6.4685 483.069 9.46465 523.991 9.46465C523.991 9.46465 523.991 9.46465 524.075 9.46465C524.241 9.46465 543.077 10.7131 563.664 7.7169C591.668 3.72202 609.504 -5.59934 616.838 -19.9143C624.756 -35.4777 619.672 -56.4507 601.669 -82.5006H598.669C617.005 -56.7004 622.339 -36.1435 614.754 -21.1627Z" fill="white"/>
<path d="M621.089 9.04853C607.42 26.11 566.081 33.1842 501.655 29.5222C452.731 26.7758 407.391 18.7028 406.975 18.6196C406.725 18.5363 379.054 13.626 347.883 19.7015C329.464 23.197 313.461 29.7719 300.209 39.2598C283.624 51.0779 271.372 67.3903 263.871 87.6976C249.369 127.064 233.116 153.946 214.114 169.925C197.611 183.824 181.526 187.486 166.524 190.066C144.604 193.811 137.186 207.793 134.852 218.863C130.185 240.501 141.437 269.714 158.939 281.449C163.69 284.611 168.524 286.193 173.191 286.193C177.525 286.193 181.776 284.861 185.776 282.115C202.195 270.962 219.031 249.49 236.867 226.852C270.789 183.658 305.877 139.048 341.132 161.436C346.299 164.682 351.3 167.928 356.051 171.091C381.888 187.986 402.391 201.385 415.309 195.06C422.977 191.315 427.311 181.411 428.894 163.767C432.145 127.313 438.146 99.8486 456.898 84.3685C470.234 73.2994 489.236 69.2213 515.073 71.7181C587.417 78.7923 635.091 65.9755 656.844 33.7668C674.263 7.96658 671.262 -25.5737 665.678 -49.21C662.511 -62.6095 658.177 -74.4277 654.76 -82.6671H652.093C655.51 -74.5109 660.011 -62.443 663.261 -48.6274C668.679 -25.4905 671.596 7.30077 654.76 32.352C633.59 63.7283 586.667 76.1291 515.323 69.2213C488.82 66.6413 469.234 70.9691 455.315 82.4543C435.979 98.517 429.728 126.481 426.394 163.6C424.894 180.079 420.977 189.65 414.226 192.896C402.557 198.555 382.638 185.572 357.468 169.093C352.634 165.931 347.633 162.685 342.465 159.439C325.713 148.786 307.627 151.449 287.208 167.595C269.372 181.577 251.869 203.882 234.95 225.437C217.281 247.992 200.528 269.215 184.443 280.201C175.025 286.609 166.19 283.363 160.356 279.451C143.604 268.216 132.852 240.169 137.269 219.445C139.52 209.125 146.437 196.059 166.94 192.563C182.276 189.9 198.695 186.155 215.697 171.84C235.033 155.527 251.536 128.312 266.205 88.5298C273.539 68.6387 285.457 52.7424 301.543 41.2572C314.461 32.019 330.214 25.6106 348.216 22.1151C359.885 19.868 371.053 19.1189 380.471 19.1189C395.806 19.1189 406.308 21.0331 406.475 21.0331C406.891 21.1164 452.398 29.1893 501.488 31.9358C567.664 35.681 608.587 28.5235 623.006 10.5466C637.258 -7.18064 640.591 -30.9834 632.59 -58.5314C629.84 -67.936 626.256 -76.2586 623.089 -82.6671H620.255C623.506 -76.3419 627.339 -67.6863 630.173 -57.8656C635.591 -39.1396 638.424 -12.5071 621.089 9.04853Z" fill="white"/>
<path fill-rule="evenodd" clip-rule="evenodd" d="M354.384 42.0062C363.302 37.6784 373.22 36.763 382.388 39.5094C391.306 42.1727 398.057 47.7489 402.391 56.0715C415.393 81.1227 403.891 125.15 395.89 149.119C393.806 155.444 391.222 158.773 387.805 159.522C387.305 159.605 386.805 159.689 386.305 159.689C380.753 159.689 374.377 153.189 366.44 145.097L366.302 144.957C358.718 137.217 350.133 128.479 339.798 122.32C322.546 112 314.045 100.431 314.545 87.7808C315.462 65.7258 344.382 46.9166 354.384 42.0062ZM387.305 157.108C389.722 156.526 391.806 153.696 393.556 148.37C411.892 93.2738 405.558 67.64 400.14 57.3199C396.14 49.6631 389.889 44.503 381.638 42.0062C378.387 41.0075 375.053 40.5081 371.636 40.5081C366.135 40.5081 360.635 41.7565 355.467 44.2533C345.799 48.9973 317.879 67.0574 317.045 87.864C316.545 99.5157 324.713 110.418 341.132 120.156C351.618 126.34 360.632 135.546 367.93 143L368.136 143.21L368.23 143.306C376.025 151.255 382.74 158.103 387.305 157.108Z" fill="white"/>
<path fill-rule="evenodd" clip-rule="evenodd" d="M358.884 80.6233C361.802 79.2085 365.052 78.8756 368.052 79.7911C371.053 80.7066 373.303 82.5375 374.72 85.3672C378.887 93.357 375.303 107.089 372.803 114.58C372.386 115.995 371.553 117.909 369.719 118.325C369.469 118.408 369.303 118.408 369.053 118.408C366.989 118.408 365.007 116.367 362.378 113.659L362.302 113.581C360.051 111.251 357.468 108.587 354.384 106.756C348.8 103.427 346.049 99.599 346.216 95.3544C346.528 87.4 357.305 81.4916 358.73 80.7104C358.826 80.6579 358.879 80.6286 358.884 80.6233ZM369.219 115.828C369.469 115.828 369.969 115.162 370.469 113.747C372.303 108.005 376.387 93.8563 372.636 86.4492C371.47 84.2853 369.803 82.8704 367.469 82.2046C366.552 81.955 365.552 81.7885 364.635 81.7885C363.052 81.7885 361.552 82.1214 360.051 82.8704C357.801 84.0356 349.05 89.4453 348.8 95.5209C348.633 98.6835 350.967 101.763 355.717 104.593C359.051 106.59 361.885 109.503 364.135 111.833C364.248 111.946 364.363 112.061 364.48 112.178C366.251 113.952 368.359 116.062 369.219 115.828Z" fill="white"/>
<path d="M1166.33 110.418C1120.24 77.6272 1064.74 50.3289 1020.73 65.6425C988.891 76.7117 966.805 109.004 955.22 161.603C949.886 185.905 936.55 201.219 915.631 207.128C876.458 218.28 813.783 192.646 770.027 147.454C734.938 111.334 720.853 71.6348 731.354 38.5939C741.106 7.96657 743.856 -25.324 739.606 -60.1959C738.689 -67.6031 737.439 -75.0103 735.938 -82.5006H733.355C734.938 -74.8438 736.188 -67.3534 737.105 -59.863C741.356 -25.324 738.605 7.63367 729.021 37.9281C718.186 71.8845 732.521 112.416 768.276 149.285C789.113 170.758 815.283 188.818 842.037 200.137C861.04 208.21 879.376 212.288 895.545 212.288C903.046 212.288 910.047 211.372 916.381 209.624C937.884 203.549 952.219 187.153 957.72 162.185C969.138 110.502 990.558 78.8756 1021.56 68.0561C1065.07 52.9089 1120.49 80.7065 1166.33 113.581V110.418V110.418Z" fill="white"/>
<path d="M1166.33 45.585C1132.33 16.5389 1078.99 -9.17808 1035.65 -0.439301C1008.73 4.97042 988.224 22.8641 974.806 52.576C956.22 93.6899 932.633 122.486 904.629 138.299C874.625 155.194 847.954 152.365 830.869 147.038C810.199 140.546 792.363 126.897 780.611 108.587C768.443 89.695 763.942 67.3903 768.026 45.8346C776.444 1.05878 779.695 -42.0526 777.611 -82.5839H775.111C777.111 -42.3022 773.944 0.725872 765.609 45.3353C761.442 67.5568 766.026 90.4441 778.528 109.836C790.613 128.645 808.949 142.627 830.202 149.285C839.12 152.115 848.288 153.447 857.456 153.447C873.875 153.447 890.46 149.036 905.879 140.38C934.383 124.317 958.303 95.1047 977.139 53.4915C990.225 24.5287 1010.06 7.21754 1036.15 1.89104C1057.32 -2.35351 1082.74 1.47491 1109.66 13.1266C1129.83 21.8654 1150.16 34.6823 1166.33 48.8308V45.585V45.585Z" fill="white"/>
<path d="M1166.33 -3.51869C1159.5 -2.93611 1151.91 -2.9361 1143.83 -3.68514C1115.41 -6.34839 1081.07 -17.3343 1049.57 -33.9796C1013.06 -53.2881 982.557 -24.4918 947.302 8.79884C920.465 34.1829 890.044 62.8961 852.372 73.2994C839.12 76.9613 828.868 75.0471 821.784 67.8064C797.697 42.9217 813.783 -38.557 824.784 -82.4174H822.201C818.867 -69.018 815.033 -52.2894 812.033 -34.8119C802.781 19.5351 805.448 54.6566 819.95 69.6374C825.201 75.0471 831.952 77.7104 840.12 77.7104C844.12 77.7104 848.371 77.0446 853.038 75.7962C891.211 65.3096 921.965 36.3468 948.969 10.713C983.557 -21.9117 1013.39 -50.1255 1048.32 -31.6493C1080.49 -14.5878 1114.33 -3.76837 1143.5 -1.10512C1151.66 -0.356079 1159.33 -0.272853 1166.25 -0.855438V-3.51869H1166.33Z" fill="white"/>
<path fill-rule="evenodd" clip-rule="evenodd" d="M650.926 135.636C650.259 128.978 659.344 121.155 677.847 112.249C690.015 106.424 704.434 108.255 714.602 116.993C722.603 123.901 731.271 133.722 726.937 141.878C723.603 148.203 713.018 151.532 698.933 151.532C689.515 151.532 678.513 150.034 667.012 146.955C656.594 144.208 651.343 140.463 650.926 135.636ZM667.595 144.541C694.182 151.699 719.769 149.951 724.687 140.713C727.52 135.47 723.437 127.896 712.935 118.908C707.101 113.997 699.85 111.417 692.515 111.417C687.848 111.417 683.181 112.416 678.847 114.497C661.928 122.653 652.843 130.06 653.343 135.386C653.677 138.965 658.594 142.128 667.595 144.541Z" fill="white"/>
</g>
<g opacity="0.21">
<path d="M103.221 579.755C140.876 605.038 165.453 641.299 187.03 673.318C211.523 709.579 232.767 740.933 265.924 746.006C269.007 746.505 272.172 746.671 275.338 746.671C300.914 746.671 331.322 731.95 369.894 700.929C398.803 677.642 422.879 656.518 444.123 637.806C488.944 598.301 521.351 569.775 557.174 560.544C593.747 551.062 633.902 561.043 695.718 594.891C746.204 622.586 806.437 641.631 860.838 647.12C886.164 649.698 909.157 649.199 927.402 645.54C946.646 641.714 960.143 634.812 967.391 624.915C977.304 611.358 979.72 586.159 934.65 542.995C880.749 491.349 819.433 485.111 754.535 478.541C711.547 474.216 667.06 469.642 622.156 451.595C571.337 431.219 527.266 395.79 487.361 343.478C457.869 304.805 423.462 286.509 387.723 290.584C363.396 293.328 339.486 306.136 316.66 328.508C293.749 351.129 273.089 382.317 255.427 421.239C242.264 450.098 227.768 464.902 210.856 466.399C174.284 469.642 131.962 408.265 91.1406 348.884C70.7298 319.193 49.6525 288.588 29.5749 266.632C19.1612 255.071 9.66388 246.672 0.833069 241.099V244.177C28.9084 262.64 59.3997 306.884 89.1412 350.131C109.635 379.905 130.879 410.76 151.29 433.215C173.117 457.167 191.779 468.894 208.191 468.894C209.19 468.894 210.19 468.81 211.19 468.727C229.018 467.147 244.264 451.928 257.76 422.154C275.338 383.481 295.749 352.543 318.492 330.171C340.903 308.132 364.313 295.574 388.056 292.912C422.796 289.004 456.536 306.968 485.445 344.892C525.6 397.62 570.087 433.215 621.239 453.757C666.476 471.971 711.13 476.462 754.285 480.87C818.766 487.44 879.666 493.594 932.984 544.659C976.805 586.658 974.805 610.61 965.474 623.335C951.812 641.881 912.823 649.782 861.171 644.542C807.103 639.053 747.203 620.091 696.968 592.563C634.569 558.381 593.914 548.401 556.591 558.048C520.185 567.446 487.611 596.139 442.54 635.893C421.296 654.605 397.303 675.73 368.395 698.933C325.574 733.364 293.166 747.503 266.341 743.428C234.266 738.604 213.356 707.666 189.113 671.821C167.369 639.635 142.709 603.208 104.637 577.593C73.0625 556.385 42.9877 545.74 14.9124 545.74C10.1637 545.74 5.4984 546.072 0.833069 546.655V549.15C32.4074 545.074 66.7309 555.221 103.221 579.755Z" fill="white"/>
<path d="M1035.87 121.173C1015.63 128.575 1003.63 147.869 986.885 174.649C978.804 187.623 969.557 202.344 957.977 217.979C920.321 268.461 882.415 249.915 819.599 219.227C787.192 203.342 746.787 183.631 696.884 169.326C624.322 148.535 575.919 149.616 548.927 172.653C524.184 193.777 516.353 232.783 524.184 295.407C531.015 349.715 571.837 391.548 645.482 419.825C714.879 446.439 797.023 454.007 839.76 456.252C914.073 459.995 979.304 471.472 1033.79 490.184C1077.28 505.154 1114.02 524.782 1142.92 548.567C1152.42 556.385 1160.5 564.12 1167.25 571.605V567.945C1160.84 561.126 1153.42 553.973 1144.76 546.821C1115.6 522.786 1078.61 502.992 1034.79 487.939C980.054 469.143 914.489 457.666 839.927 453.84C797.273 451.678 715.463 444.11 646.399 417.58C573.67 389.719 533.348 348.551 526.683 295.241C518.935 233.531 526.516 195.274 550.593 174.732C576.919 152.277 624.572 151.279 696.218 171.905C745.954 186.209 786.192 205.837 818.516 221.638C850.424 237.274 875.667 249.582 898.16 251.745C922.57 254.073 941.648 244.177 959.976 219.642C971.639 204.007 980.887 189.203 989.051 176.146C1005.46 149.782 1017.38 130.737 1036.79 123.668C1057.28 116.183 1085.02 122.503 1129.68 144.792C1143.26 151.612 1155.75 159.097 1167.25 166.998V163.837C1156.09 156.186 1143.92 149.034 1130.76 142.463C1085.36 119.842 1057.03 113.438 1035.87 121.173Z" fill="white"/>
<path d="M1084.94 199.017C1064.45 199.599 1047.12 209.33 1033.46 227.959C1021.04 244.842 1012.29 260.228 1004.46 273.701C979.304 317.363 967.807 337.324 890.746 307.134C868.252 298.318 841.76 285.511 813.684 271.954C736.373 234.529 648.732 192.114 602.328 212.74C588.332 218.894 578.751 230.704 573.836 247.67C567.171 270.624 569.754 291.415 581.667 309.463C598.996 335.66 635.485 356.452 693.136 373.085C737.956 386.059 795.69 396.455 874.667 405.936C952.228 415.251 1032.54 440.035 1100.69 475.63C1126.1 488.937 1148.67 503.242 1167 517.463V514.136C1148.92 500.331 1126.93 486.525 1101.77 473.385C1033.37 437.623 952.728 412.756 874.834 403.441C795.94 393.96 738.373 383.564 693.719 370.59C636.652 354.123 600.662 333.581 583.667 307.966C572.17 290.584 569.671 270.541 576.086 248.252C580.918 231.785 589.748 220.89 603.161 214.985C648.565 194.859 735.623 237.024 812.435 274.2C840.51 287.839 867.086 300.647 889.663 309.463C927.735 324.349 951.145 327.676 967.974 320.441C984.219 313.455 993.55 297.32 1006.38 274.948C1014.13 261.475 1022.87 246.256 1035.2 229.456C1048.37 211.492 1065.03 202.094 1084.77 201.512C1112.6 200.763 1142.84 217.73 1166.92 235.777V232.616C1129.09 204.34 1101.77 198.518 1084.94 199.017Z" fill="white"/>
<path d="M1081.19 263.721C1066.53 266.216 1055.7 277.693 1048.95 297.819C1028.79 357.783 981.637 353.707 950.395 351.046C933.4 349.549 921.07 348.551 919.571 358.282C917.655 370.59 924.403 380.071 941.065 387.972C955.894 395.041 977.221 400.53 1001.88 406.768C1053.53 419.908 1119.68 436.791 1167.08 480.121V476.711C1119.43 434.13 1053.78 417.413 1002.46 404.356C953.478 391.881 918.155 382.899 921.987 358.614C923.07 351.545 932.9 352.044 950.146 353.541C966.141 354.872 985.969 356.618 1004.71 350.298C1026.87 342.813 1042.12 325.93 1051.28 298.651C1057.7 279.522 1067.95 268.544 1081.61 266.216C1107.35 261.725 1141.26 287.59 1167.17 312.373V308.88C1165.83 307.55 1164.42 306.302 1163 304.972C1129.34 274.033 1101.85 260.145 1081.19 263.721Z" fill="white"/>
<path fill-rule="evenodd" clip-rule="evenodd" d="M879.608 352.956C879.895 353.16 880.055 353.274 880.082 353.292C889.996 360.693 893.495 366.765 890.496 371.339C887.164 376.246 876.417 378.159 862.254 378.159C842.843 378.159 816.85 374.582 794.023 370.008C738.456 358.947 685.471 340.151 652.314 319.775C614.991 296.821 602.328 271.954 615.741 247.836C619.323 241.349 625.322 237.191 633.486 235.361C659.812 229.539 709.381 247.586 780.694 289.17C830.809 318.275 874.589 349.389 879.608 352.956ZM857.505 375.497C880.582 376.079 886.747 372.171 888.33 369.842C891.079 365.85 884.581 359.695 878.583 355.288C876.417 353.707 713.13 236.775 644.066 236.775C640.401 236.775 637.068 237.107 633.986 237.773C626.571 239.436 621.156 243.179 617.907 249C611.242 260.976 611.326 273.119 618.24 285.178C624.489 296.156 636.402 307.051 653.564 317.613C686.471 337.823 739.122 356.535 794.44 367.513C818.183 372.254 840.594 375.081 857.505 375.497Z" fill="white"/>
<path fill-rule="evenodd" clip-rule="evenodd" d="M792.882 331.902C793.485 332.274 793.82 332.481 793.857 332.5C795.107 333.415 799.022 336.326 797.106 339.07C796.023 340.733 792.691 341.316 788.192 341.316C775.862 341.316 754.951 336.492 749.619 335.244C721.877 328.591 696.135 319.027 680.806 309.629C665.394 300.148 660.062 290.916 664.894 282.184C666.06 280.105 668.059 278.691 670.725 278.026C681.556 275.281 705.632 283.598 742.205 302.809C766.26 315.444 788.08 328.933 792.882 331.902ZM750.203 332.749C778.528 339.486 793.69 339.652 795.107 337.573C795.273 337.49 795.023 336.492 792.357 334.496C790.025 332.999 704.882 279.938 675.474 279.938C673.891 279.938 672.558 280.105 671.309 280.437C669.226 280.936 667.893 281.934 667.06 283.348C662.978 290.667 667.976 298.734 682.055 307.383C697.134 316.698 722.627 326.179 750.203 332.749Z" fill="white"/>
<path d="M82.2265 245.923C100.971 280.354 121.049 315.783 140.627 341.648C162.204 370.008 180.948 383.814 198.027 383.814C198.193 383.814 198.36 383.814 198.527 383.814C215.522 383.564 230.518 369.925 244.347 342.314C273.422 284.346 307.829 248.917 343.902 240.018C368.561 233.947 393.888 239.935 419.13 257.982C438.541 271.871 452.371 276.445 461.202 272.038C474.281 265.55 475.031 241.349 475.864 213.405C476.781 182.716 477.78 147.869 496.192 131.901C504.773 124.499 516.269 121.755 531.348 123.418C570.837 127.909 608.41 121.921 639.984 106.286C669.975 91.399 693.219 68.6944 707.131 40.584C720.378 13.8874 724.21 -16.219 718.378 -46.3254C715.962 -58.8836 711.88 -71.1923 706.298 -83.2515H703.466C722.96 -42.167 724.043 1.07974 704.965 39.5029C691.303 67.1143 668.476 89.403 638.984 104.04C607.826 119.509 570.67 125.331 531.682 120.923C516.103 119.177 503.606 122.171 494.609 129.988C475.364 146.622 474.365 182.051 473.365 213.239C472.615 239.27 471.865 263.887 460.119 269.709C452.121 273.701 439.208 269.127 420.547 255.82C394.637 237.357 368.645 231.203 343.235 237.44C306.413 246.588 271.423 282.433 242.098 341.066C228.685 367.763 214.439 380.903 198.527 381.152C198.36 381.152 198.193 381.152 198.027 381.152C161.787 381.152 122.048 313.704 84.3926 244.509C61.3158 202.344 33.3238 173.235 0.833069 157.766V160.511C32.3241 175.897 59.6496 204.506 82.2265 245.923Z" fill="white"/>
<path d="M113.551 139.137C127.963 139.137 140.627 137.058 151.04 132.816C174.783 123.169 186.613 103.458 186.197 74.0171C185.78 45.1582 193.528 23.7012 209.857 8.48162C250.095 -29.2762 336.737 -22.7891 428.544 -15.8031C442.04 -14.8051 456.036 -13.7239 469.783 -12.8091C483.195 -11.8943 495.525 -11.4784 506.855 -11.4784C558.591 -11.4784 587.916 -20.71 594.33 -39.0899C598.829 -52.0639 591.331 -67.7824 579.335 -83.0851H576.086C588.415 -67.8656 596.246 -52.3134 591.998 -39.8384C584.666 -18.714 543.678 -10.3973 470.033 -15.2209C456.286 -16.1358 442.29 -17.217 428.794 -18.215C336.487 -25.201 249.262 -31.7712 208.191 6.73512C191.362 22.5368 183.364 44.5761 183.781 74.1835C184.197 102.46 172.867 121.505 150.207 130.654C121.049 142.463 73.6456 137.058 19.9943 115.85C13.5794 113.355 7.24791 110.611 0.916382 107.783V110.527C6.91467 113.272 12.9963 115.85 19.0779 118.179C54.2345 131.984 86.8918 139.137 113.551 139.137Z" fill="white"/>
<path d="M65.8145 59.9619C95.806 58.1323 121.215 42.4137 141.46 13.2221L144.792 8.39845C169.368 -27.0306 181.698 -44.8284 199.943 -52.2302C218.188 -59.6321 242.931 -56.9707 292.25 -51.5649C298.248 -50.8996 304.663 -50.2342 311.411 -49.4857C369.894 -43.2482 412.216 -41.0859 440.791 -43.0819C468.366 -44.9947 484.029 -50.5669 490.027 -60.6301C493.692 -66.7844 493.526 -74.2695 490.527 -83.0851H487.944C490.943 -74.6021 491.276 -67.5329 487.861 -61.8776C482.362 -52.8124 466.95 -47.4065 440.624 -45.5769C412.132 -43.5809 369.978 -45.66 311.661 -51.9807C304.913 -52.7292 298.498 -53.3946 292.5 -54.0599C242.764 -59.5489 217.854 -62.2934 198.943 -54.5589C180.032 -46.8244 167.535 -28.8603 142.709 6.98461L139.377 11.8083C119.549 40.3345 94.8062 55.7204 65.6479 57.4669C50.6522 58.3818 28.9084 55.8036 0.749756 42.6632V45.4077C25.4927 56.8016 45.3204 60.1283 60.0662 60.1283C62.1489 60.1283 64.065 60.0451 65.8145 59.9619Z" fill="white"/>
<path d="M613.575 -21.7912C597.08 10.7271 524.017 6.31925 523.184 6.23608C482.279 6.23608 444.29 3.32524 410.799 0.663902C360.98 -3.24494 317.909 -6.57161 286.085 1.66191C269.256 5.98659 256.177 13.3884 246.18 24.2001C235.349 35.8435 228.018 51.5621 223.686 72.1043C209.274 140.8 171.534 149.034 141.126 155.604C122.798 159.596 106.969 163.006 101.721 179.306C96.9723 194.193 102.471 223.801 115.884 254.739C130.213 287.922 149.707 313.621 168.035 323.435C173.95 326.595 179.865 328.175 185.447 328.175C196.111 328.175 206.191 322.52 215.022 311.459C228.435 294.659 239.348 276.362 249.929 258.648C269.673 225.547 286.668 197.021 313.077 190.617C329.323 186.708 348.234 191.532 370.728 205.587C400.552 224.133 421.213 229.955 433.959 223.385C449.788 215.235 451.371 190.035 453.037 163.255C455.287 127.327 457.619 90.1515 494.609 91.8148C503.106 92.1475 511.271 92.397 519.185 92.397C599.162 92.397 651.064 73.5181 673.474 36.093C691.136 6.73508 686.637 -28.694 679.806 -53.1451C676.557 -64.8716 672.475 -75.1843 668.892 -83.1683H666.143C669.809 -75.1843 674.058 -64.4558 677.39 -52.3966C689.47 -8.90029 680.722 19.0438 671.308 34.8455C647.149 75.0983 587.666 93.4782 494.692 89.403C476.947 88.6545 465.117 96.1395 458.536 112.357C452.787 126.412 451.621 145.125 450.538 163.255C448.955 189.286 447.372 213.821 432.793 221.306C420.88 227.46 401.052 221.638 371.977 203.591C348.817 189.203 329.323 184.213 312.411 188.372C285.002 195.025 267.674 223.967 247.679 257.566C237.182 275.198 226.269 293.411 212.939 310.045C199.943 326.262 185.197 330.005 169.035 321.355C151.207 311.791 132.046 286.592 117.966 253.907C105.053 223.967 99.3883 194.36 103.887 180.221C108.719 165.251 123.132 162.091 141.46 158.182C156.789 154.855 174.117 151.113 189.613 139.303C207.524 125.664 219.437 103.874 225.936 72.6864C234.017 34.0138 252.678 12.8894 286.502 4.15691C300.664 0.49757 317.243 -0.833099 335.654 -0.833099C357.981 -0.833099 383.224 1.16291 410.383 3.24208C443.957 5.82025 481.946 8.81426 522.851 8.81426C522.851 8.81426 522.851 8.81426 522.934 8.81426C523.101 8.81426 541.929 10.0618 562.506 7.06776C590.498 3.07575 608.326 -6.23895 615.658 -20.5437C623.572 -36.0959 618.49 -57.0539 600.495 -83.0852H597.496C615.824 -57.3866 621.156 -36.7612 613.575 -21.7912Z" fill="white"/>
<path d="M619.99 8.39843C606.327 25.4476 565.005 32.5168 500.607 28.8575C451.704 26.113 406.384 18.0458 405.967 17.9626C405.718 17.8795 378.059 12.9726 346.901 19.0438C328.49 22.5368 312.494 29.107 299.248 38.588C282.669 50.3977 270.423 66.6984 262.925 86.9912C248.429 126.329 232.184 153.192 213.189 169.16C196.694 183.049 180.615 186.708 165.619 189.286C143.709 193.029 136.294 207.001 133.962 218.062C129.296 239.686 140.543 268.877 158.038 280.604C162.787 283.764 167.619 285.344 172.284 285.344C176.616 285.344 180.865 284.014 184.864 281.269C201.276 270.125 218.104 248.668 235.933 226.046C269.84 182.883 304.913 138.305 340.153 160.677C345.318 163.921 350.317 167.164 355.065 170.324C380.891 187.207 401.385 200.597 414.298 194.276C421.963 190.534 426.295 180.637 427.878 163.006C431.127 126.579 437.125 99.1335 455.87 83.6645C469.199 72.6033 488.194 68.5281 514.02 71.0231C586.333 78.0923 633.986 65.2846 655.73 33.099C673.141 7.31727 670.142 -26.199 664.56 -49.8184C661.395 -63.2083 657.062 -75.018 653.647 -83.2515H650.981C654.397 -75.1011 658.895 -63.0419 662.144 -49.2362C667.559 -26.1158 670.475 6.65193 653.647 31.6852C632.486 63.0391 585.583 75.431 514.27 68.5281C487.777 65.9499 468.2 70.2746 454.287 81.7516C434.959 97.8029 428.711 125.747 425.379 162.839C423.879 179.306 419.963 188.871 413.215 192.114C401.552 197.769 381.641 184.795 356.482 168.328C351.65 165.168 346.651 161.925 341.486 158.681C324.741 148.036 306.662 150.697 286.252 166.831C268.423 180.803 250.928 203.092 234.017 224.632C216.355 247.171 199.61 268.378 183.531 279.356C174.117 285.76 165.286 282.517 159.454 278.608C142.709 267.38 131.962 239.353 136.378 218.644C138.627 208.332 145.542 195.274 166.036 191.781C181.365 189.12 197.777 185.378 214.772 171.073C234.1 154.772 250.595 127.577 265.258 87.8228C272.589 67.9459 284.502 52.0611 300.581 40.584C313.494 31.3525 329.239 24.9486 347.234 21.4556C358.898 19.2101 370.061 18.4616 379.475 18.4616C394.804 18.4616 405.301 20.3745 405.468 20.3745C405.884 20.4576 451.371 28.5248 500.441 31.2693C566.588 35.0118 607.493 27.8595 621.906 9.89544C636.152 -7.73594 639.484 -31.6048 631.486 -59.0499C628.737 -68.4478 625.155 -76.7645 621.989 -83.1683H619.157C622.406 -76.8476 626.238 -68.1983 629.07 -58.3846C634.486 -39.8384 637.235 -13.1418 619.99 8.39843Z" fill="white"/>
<path fill-rule="evenodd" clip-rule="evenodd" d="M353.316 41.3325C362.23 37.0079 372.144 36.093 381.308 38.8375C390.305 41.4989 397.053 47.0711 401.302 55.3878C414.298 80.421 402.802 124.416 394.804 148.368C392.721 154.689 390.139 158.016 386.723 158.764C386.223 158.847 385.723 158.931 385.223 158.931C379.674 158.931 373.3 152.435 365.366 144.35L365.229 144.21C357.648 136.475 349.067 127.743 338.737 121.589C321.492 111.276 312.994 99.7157 313.494 87.0743C314.41 65.0351 343.319 46.2394 353.316 41.3325ZM386.223 156.352C388.639 155.77 390.722 152.943 392.471 147.62C410.883 92.5634 404.551 66.948 399.053 56.6353C395.054 48.9839 388.806 43.8276 380.558 41.3325C377.309 40.3345 373.977 39.8355 370.561 39.8355C365.062 39.8355 359.564 41.083 354.399 43.578C344.735 48.3186 316.826 66.3658 315.993 87.1575C315.493 98.8009 323.658 109.696 340.07 119.426C350.551 125.606 359.561 134.805 366.856 142.254L367.062 142.464L367.156 142.56C374.947 150.503 381.66 157.346 386.223 156.352Z" fill="white"/>
<path fill-rule="evenodd" clip-rule="evenodd" d="M357.898 79.922C360.814 78.5082 364.063 78.1755 367.062 79.0903C369.978 80.0052 372.227 81.8348 373.727 84.6625C377.892 92.6465 374.31 106.369 371.811 113.854C371.394 115.268 370.561 117.181 368.728 117.597C368.478 117.68 368.312 117.68 368.062 117.68C365.999 117.68 364.018 115.64 361.39 112.934L361.314 112.856C359.064 110.527 356.482 107.866 353.399 106.036C347.817 102.71 345.068 98.884 345.235 94.6425C345.547 86.6938 356.319 80.7897 357.743 80.009C357.839 79.9566 357.893 79.9272 357.898 79.922ZM368.145 115.102C368.395 115.102 368.895 114.436 369.395 113.022C371.311 107.284 375.31 93.1455 371.561 85.7437C370.394 83.5813 368.728 82.1675 366.395 81.5022C365.479 81.2527 364.479 81.0863 363.563 81.0863C361.98 81.0863 360.48 81.419 358.981 82.1675C356.732 83.3318 347.984 88.7377 347.734 94.8089C347.567 97.9692 349.9 101.046 354.649 103.874C357.981 105.87 360.814 108.781 363.063 111.11C363.176 111.222 363.291 111.338 363.408 111.454C365.178 113.227 367.285 115.336 368.145 115.102Z" fill="white"/>
<path d="M1019.46 64.8688C987.635 75.93 965.558 108.199 953.978 160.76C948.646 185.045 935.316 200.348 914.406 206.253C875.25 217.397 812.601 191.781 768.864 146.622C733.791 110.527 719.711 70.8568 730.208 37.8395C739.956 7.23409 742.705 -26.0327 738.456 -60.8796C737.54 -68.1983 736.29 -75.6833 734.79 -83.1683H732.208C733.791 -75.517 735.04 -68.032 735.957 -60.5469C740.205 -26.0327 737.456 6.90143 727.876 37.1742C717.045 71.1063 731.375 111.609 767.114 148.451C787.942 169.909 814.101 187.956 840.843 199.266C859.838 207.334 878.166 211.409 894.328 211.409C901.826 211.409 908.824 210.494 915.156 208.747C936.649 202.676 950.979 186.292 956.477 161.342C967.89 109.696 989.301 78.0923 1020.29 67.2806C1064.45 51.8947 1121.01 80.8368 1167.17 114.353V111.276C1120.68 77.7596 1064.11 49.3997 1019.46 64.8688Z" fill="white"/>
<path d="M1034.37 -1.0826C1007.46 4.32325 986.968 22.2041 973.556 51.8947C954.978 92.9792 931.401 121.755 903.409 137.557C873.417 154.44 846.758 151.612 829.68 146.289C809.019 139.802 791.191 126.163 779.444 107.866C767.281 88.9872 762.782 66.6984 766.865 45.1582C775.279 0.41441 778.445 -42.7492 776.445 -83.1683H773.946C775.945 -42.9156 772.78 0.0817337 764.449 44.6592C760.283 66.8648 764.865 89.7357 777.362 109.114C789.441 127.909 807.77 141.881 829.013 148.535C837.928 151.362 847.092 152.693 856.256 152.693C872.668 152.693 889.246 148.285 904.659 139.636C933.15 123.585 957.06 94.393 975.888 52.8096C988.968 23.8675 1008.8 6.56875 1034.87 1.24607C1056.03 -2.99544 1081.44 0.830235 1108.35 12.4736C1129.43 21.5388 1150.75 35.1782 1167.17 50.065V46.7384C1133.26 16.9646 1078.61 -9.98146 1034.37 -1.0826Z" fill="white"/>
<path d="M1142.42 -4.40928C1114.02 -7.07062 1079.69 -18.0486 1048.2 -34.682C1011.71 -53.9768 981.22 -25.201 945.98 8.06576C919.154 33.4317 888.746 62.1242 851.09 72.5201C837.844 76.1795 827.597 74.2666 820.516 67.0311C796.439 42.1642 812.601 -39.2562 823.598 -83.1683H821.016C817.683 -69.7785 813.851 -53.0619 810.852 -35.5969C801.605 18.7111 804.27 53.8076 818.766 68.7776C824.015 74.1835 830.763 76.8448 838.927 76.8448C842.926 76.8448 847.175 76.1794 851.84 74.9319C889.996 64.4529 920.737 35.5108 947.73 9.89543C982.303 -22.706 1012.13 -50.8996 1047.03 -32.4365C1079.19 -15.3873 1113.02 -4.57561 1142.17 -1.91427C1151.25 -1.0826 1159.59 -1.0826 1167.17 -1.91427V-4.40928C1159.75 -3.57761 1151.42 -3.57761 1142.42 -4.40928Z" fill="white"/>
<path fill-rule="evenodd" clip-rule="evenodd" d="M649.731 134.895C649.065 128.242 658.145 120.424 676.64 111.525C688.803 105.704 703.299 107.533 713.38 116.266C721.377 123.169 730.042 132.982 725.71 141.133C722.377 147.453 711.797 150.78 697.718 150.78C688.304 150.78 677.307 149.283 665.81 146.206C655.396 143.461 650.148 139.719 649.731 134.895ZM666.476 143.794C693.052 150.947 718.628 149.2 723.543 139.968C726.293 134.646 722.294 127.161 711.797 118.179C705.965 113.272 698.717 110.694 691.386 110.694C686.721 110.694 682.055 111.692 677.723 113.771C660.811 121.921 651.731 129.323 652.23 134.646C652.564 138.222 657.479 141.382 666.476 143.794Z" fill="white"/>
</g>
<g opacity="0.21">
<path d="M103.221 579.755C140.876 605.038 165.453 641.299 187.03 673.318C211.523 709.579 232.767 740.933 265.924 746.006C269.007 746.505 272.172 746.671 275.338 746.671C300.914 746.671 331.322 731.95 369.894 700.929C398.803 677.642 422.879 656.518 444.123 637.806C488.944 598.301 521.351 569.775 557.174 560.544C593.747 551.062 633.902 561.043 695.718 594.891C746.204 622.586 806.437 641.631 860.838 647.12C886.164 649.698 909.157 649.199 927.402 645.54C946.646 641.714 960.143 634.812 967.391 624.915C977.304 611.358 979.72 586.159 934.65 542.995C880.749 491.349 819.433 485.111 754.535 478.541C711.547 474.216 667.06 469.642 622.156 451.595C571.337 431.219 527.266 395.79 487.361 343.478C457.869 304.805 423.462 286.509 387.723 290.584C363.396 293.328 339.486 306.136 316.66 328.508C293.749 351.129 273.089 382.317 255.427 421.239C242.264 450.098 227.768 464.902 210.856 466.399C174.284 469.642 131.962 408.265 91.1406 348.884C70.7298 319.193 49.6525 288.588 29.5749 266.632C19.1612 255.071 9.66388 246.672 0.833069 241.099V244.177C28.9084 262.64 59.3997 306.884 89.1412 350.131C109.635 379.905 130.879 410.76 151.29 433.215C173.117 457.167 191.779 468.894 208.191 468.894C209.19 468.894 210.19 468.81 211.19 468.727C229.018 467.147 244.264 451.928 257.76 422.154C275.338 383.481 295.749 352.543 318.492 330.171C340.903 308.132 364.313 295.574 388.056 292.912C422.796 289.004 456.536 306.968 485.445 344.892C525.6 397.62 570.087 433.215 621.239 453.757C666.476 471.971 711.13 476.462 754.285 480.87C818.766 487.44 879.666 493.594 932.984 544.659C976.805 586.658 974.805 610.61 965.474 623.335C951.812 641.881 912.823 649.782 861.171 644.542C807.103 639.053 747.203 620.091 696.968 592.563C634.569 558.381 593.914 548.401 556.591 558.048C520.185 567.446 487.611 596.139 442.54 635.893C421.296 654.605 397.303 675.73 368.395 698.933C325.574 733.364 293.166 747.503 266.341 743.428C234.266 738.604 213.356 707.666 189.113 671.821C167.369 639.635 142.709 603.208 104.637 577.593C73.0625 556.385 42.9877 545.74 14.9124 545.74C10.1637 545.74 5.4984 546.072 0.833069 546.655V549.15C32.4074 545.074 66.7309 555.221 103.221 579.755Z" fill="white"/>
<path d="M1035.87 121.173C1015.63 128.575 1003.63 147.869 986.885 174.649C978.804 187.623 969.557 202.344 957.977 217.979C920.321 268.461 882.415 249.915 819.599 219.227C787.192 203.342 746.787 183.631 696.884 169.326C624.322 148.535 575.919 149.616 548.927 172.653C524.184 193.777 516.353 232.783 524.184 295.407C531.015 349.715 571.837 391.548 645.482 419.825C714.879 446.439 797.023 454.007 839.76 456.252C914.073 459.995 979.304 471.472 1033.79 490.184C1077.28 505.154 1114.02 524.782 1142.92 548.567C1152.42 556.385 1160.5 564.12 1167.25 571.605V567.945C1160.84 561.126 1153.42 553.973 1144.76 546.821C1115.6 522.786 1078.61 502.992 1034.79 487.939C980.054 469.143 914.489 457.666 839.927 453.84C797.273 451.678 715.463 444.11 646.399 417.58C573.67 389.719 533.348 348.551 526.683 295.241C518.935 233.531 526.516 195.274 550.593 174.732C576.919 152.277 624.572 151.279 696.218 171.905C745.954 186.209 786.192 205.837 818.516 221.638C850.424 237.274 875.667 249.582 898.16 251.745C922.57 254.073 941.648 244.177 959.976 219.642C971.639 204.007 980.887 189.203 989.051 176.146C1005.46 149.782 1017.38 130.737 1036.79 123.668C1057.28 116.183 1085.02 122.503 1129.68 144.792C1143.26 151.612 1155.75 159.097 1167.25 166.998V163.837C1156.09 156.186 1143.92 149.034 1130.76 142.463C1085.36 119.842 1057.03 113.438 1035.87 121.173Z" fill="white"/>
<path d="M1084.94 199.017C1064.45 199.599 1047.12 209.33 1033.46 227.959C1021.04 244.842 1012.29 260.228 1004.46 273.701C979.304 317.363 967.807 337.324 890.746 307.134C868.252 298.318 841.76 285.511 813.684 271.954C736.373 234.529 648.732 192.114 602.328 212.74C588.332 218.894 578.751 230.704 573.836 247.67C567.171 270.624 569.754 291.415 581.667 309.463C598.996 335.66 635.485 356.452 693.136 373.085C737.956 386.059 795.69 396.455 874.667 405.936C952.228 415.251 1032.54 440.035 1100.69 475.63C1126.1 488.937 1148.67 503.242 1167 517.463V514.136C1148.92 500.331 1126.93 486.525 1101.77 473.385C1033.37 437.623 952.728 412.756 874.834 403.441C795.94 393.96 738.373 383.564 693.719 370.59C636.652 354.123 600.662 333.581 583.667 307.966C572.17 290.584 569.671 270.541 576.086 248.252C580.918 231.785 589.748 220.89 603.161 214.985C648.565 194.859 735.623 237.024 812.435 274.2C840.51 287.839 867.086 300.647 889.663 309.463C927.735 324.349 951.145 327.676 967.974 320.441C984.219 313.455 993.55 297.32 1006.38 274.948C1014.13 261.475 1022.87 246.256 1035.2 229.456C1048.37 211.492 1065.03 202.094 1084.77 201.512C1112.6 200.763 1142.84 217.73 1166.92 235.777V232.616C1129.09 204.34 1101.77 198.518 1084.94 199.017Z" fill="white"/>
<path d="M1081.19 263.721C1066.53 266.216 1055.7 277.693 1048.95 297.819C1028.79 357.783 981.637 353.707 950.395 351.046C933.4 349.549 921.07 348.551 919.571 358.282C917.655 370.59 924.403 380.071 941.065 387.972C955.894 395.041 977.221 400.53 1001.88 406.768C1053.53 419.908 1119.68 436.791 1167.08 480.121V476.711C1119.43 434.13 1053.78 417.413 1002.46 404.356C953.478 391.881 918.155 382.899 921.987 358.614C923.07 351.545 932.9 352.044 950.146 353.541C966.141 354.872 985.969 356.618 1004.71 350.298C1026.87 342.813 1042.12 325.93 1051.28 298.651C1057.7 279.522 1067.95 268.544 1081.61 266.216C1107.35 261.725 1141.26 287.59 1167.17 312.373V308.88C1165.83 307.55 1164.42 306.302 1163 304.972C1129.34 274.033 1101.85 260.145 1081.19 263.721Z" fill="white"/>
<path fill-rule="evenodd" clip-rule="evenodd" d="M879.608 352.956C879.895 353.16 880.055 353.274 880.082 353.292C889.996 360.693 893.495 366.765 890.496 371.339C887.164 376.246 876.417 378.159 862.254 378.159C842.843 378.159 816.85 374.582 794.023 370.008C738.456 358.947 685.471 340.151 652.314 319.775C614.991 296.821 602.328 271.954 615.741 247.836C619.323 241.349 625.322 237.191 633.486 235.361C659.812 229.539 709.381 247.586 780.694 289.17C830.809 318.275 874.589 349.389 879.608 352.956ZM857.505 375.497C880.582 376.079 886.747 372.171 888.33 369.842C891.079 365.85 884.581 359.695 878.583 355.288C876.417 353.707 713.13 236.775 644.066 236.775C640.401 236.775 637.068 237.107 633.986 237.773C626.571 239.436 621.156 243.179 617.907 249C611.242 260.976 611.326 273.119 618.24 285.178C624.489 296.156 636.402 307.051 653.564 317.613C686.471 337.823 739.122 356.535 794.44 367.513C818.183 372.254 840.594 375.081 857.505 375.497Z" fill="white"/>
<path fill-rule="evenodd" clip-rule="evenodd" d="M792.882 331.902C793.485 332.274 793.82 332.481 793.857 332.5C795.107 333.415 799.022 336.326 797.106 339.07C796.023 340.733 792.691 341.316 788.192 341.316C775.862 341.316 754.951 336.492 749.619 335.244C721.877 328.591 696.135 319.027 680.806 309.629C665.394 300.148 660.062 290.916 664.894 282.184C666.06 280.105 668.059 278.691 670.725 278.026C681.556 275.281 705.632 283.598 742.205 302.809C766.26 315.444 788.08 328.933 792.882 331.902ZM750.203 332.749C778.528 339.486 793.69 339.652 795.107 337.573C795.273 337.49 795.023 336.492 792.357 334.496C790.025 332.999 704.882 279.938 675.474 279.938C673.891 279.938 672.558 280.105 671.309 280.437C669.226 280.936 667.893 281.934 667.06 283.348C662.978 290.667 667.976 298.734 682.055 307.383C697.134 316.698 722.627 326.179 750.203 332.749Z" fill="white"/>
<path d="M82.2265 245.923C100.971 280.354 121.049 315.783 140.627 341.648C162.204 370.008 180.948 383.814 198.027 383.814C198.193 383.814 198.36 383.814 198.527 383.814C215.522 383.564 230.518 369.925 244.347 342.314C273.422 284.346 307.829 248.917 343.902 240.018C368.561 233.947 393.888 239.935 419.13 257.982C438.541 271.871 452.371 276.445 461.202 272.038C474.281 265.55 475.031 241.349 475.864 213.405C476.781 182.716 477.78 147.869 496.192 131.901C504.773 124.499 516.269 121.755 531.348 123.418C570.837 127.909 608.41 121.921 639.984 106.286C669.975 91.399 693.219 68.6944 707.131 40.584C720.378 13.8874 724.21 -16.219 718.378 -46.3254C715.962 -58.8836 711.88 -71.1923 706.298 -83.2515H703.466C722.96 -42.167 724.043 1.07974 704.965 39.5029C691.303 67.1143 668.476 89.403 638.984 104.04C607.826 119.509 570.67 125.331 531.682 120.923C516.103 119.177 503.606 122.171 494.609 129.988C475.364 146.622 474.365 182.051 473.365 213.239C472.615 239.27 471.865 263.887 460.119 269.709C452.121 273.701 439.208 269.127 420.547 255.82C394.637 237.357 368.645 231.203 343.235 237.44C306.413 246.588 271.423 282.433 242.098 341.066C228.685 367.763 214.439 380.903 198.527 381.152C198.36 381.152 198.193 381.152 198.027 381.152C161.787 381.152 122.048 313.704 84.3926 244.509C61.3158 202.344 33.3238 173.235 0.833069 157.766V160.511C32.3241 175.897 59.6496 204.506 82.2265 245.923Z" fill="white"/>
<path d="M113.551 139.137C127.963 139.137 140.627 137.058 151.04 132.816C174.783 123.169 186.613 103.458 186.197 74.0171C185.78 45.1582 193.528 23.7012 209.857 8.48162C250.095 -29.2762 336.737 -22.7891 428.544 -15.8031C442.04 -14.8051 456.036 -13.7239 469.783 -12.8091C483.195 -11.8943 495.525 -11.4784 506.855 -11.4784C558.591 -11.4784 587.916 -20.71 594.33 -39.0899C598.829 -52.0639 591.331 -67.7824 579.335 -83.0851H576.086C588.415 -67.8656 596.246 -52.3134 591.998 -39.8384C584.666 -18.714 543.678 -10.3973 470.033 -15.2209C456.286 -16.1358 442.29 -17.217 428.794 -18.215C336.487 -25.201 249.262 -31.7712 208.191 6.73512C191.362 22.5368 183.364 44.5761 183.781 74.1835C184.197 102.46 172.867 121.505 150.207 130.654C121.049 142.463 73.6456 137.058 19.9943 115.85C13.5794 113.355 7.24791 110.611 0.916382 107.783V110.527C6.91467 113.272 12.9963 115.85 19.0779 118.179C54.2345 131.984 86.8918 139.137 113.551 139.137Z" fill="white"/>
<path d="M65.8145 59.9619C95.806 58.1323 121.215 42.4137 141.46 13.2221L144.792 8.39845C169.368 -27.0306 181.698 -44.8284 199.943 -52.2302C218.188 -59.6321 242.931 -56.9707 292.25 -51.5649C298.248 -50.8996 304.663 -50.2342 311.411 -49.4857C369.894 -43.2482 412.216 -41.0859 440.791 -43.0819C468.366 -44.9947 484.029 -50.5669 490.027 -60.6301C493.692 -66.7844 493.526 -74.2695 490.527 -83.0851H487.944C490.943 -74.6021 491.276 -67.5329 487.861 -61.8776C482.362 -52.8124 466.95 -47.4065 440.624 -45.5769C412.132 -43.5809 369.978 -45.66 311.661 -51.9807C304.913 -52.7292 298.498 -53.3946 292.5 -54.0599C242.764 -59.5489 217.854 -62.2934 198.943 -54.5589C180.032 -46.8244 167.535 -28.8603 142.709 6.98461L139.377 11.8083C119.549 40.3345 94.8062 55.7204 65.6479 57.4669C50.6522 58.3818 28.9084 55.8036 0.749756 42.6632V45.4077C25.4927 56.8016 45.3204 60.1283 60.0662 60.1283C62.1489 60.1283 64.065 60.0451 65.8145 59.9619Z" fill="white"/>
<path d="M613.575 -21.7912C597.08 10.7271 524.017 6.31925 523.184 6.23608C482.279 6.23608 444.29 3.32524 410.799 0.663902C360.98 -3.24494 317.909 -6.57161 286.085 1.66191C269.256 5.98659 256.177 13.3884 246.18 24.2001C235.349 35.8435 228.018 51.5621 223.686 72.1043C209.274 140.8 171.534 149.034 141.126 155.604C122.798 159.596 106.969 163.006 101.721 179.306C96.9723 194.193 102.471 223.801 115.884 254.739C130.213 287.922 149.707 313.621 168.035 323.435C173.95 326.595 179.865 328.175 185.447 328.175C196.111 328.175 206.191 322.52 215.022 311.459C228.435 294.659 239.348 276.362 249.929 258.648C269.673 225.547 286.668 197.021 313.077 190.617C329.323 186.708 348.234 191.532 370.728 205.587C400.552 224.133 421.213 229.955 433.959 223.385C449.788 215.235 451.371 190.035 453.037 163.255C455.287 127.327 457.619 90.1515 494.609 91.8148C503.106 92.1475 511.271 92.397 519.185 92.397C599.162 92.397 651.064 73.5181 673.474 36.093C691.136 6.73508 686.637 -28.694 679.806 -53.1451C676.557 -64.8716 672.475 -75.1843 668.892 -83.1683H666.143C669.809 -75.1843 674.058 -64.4558 677.39 -52.3966C689.47 -8.90029 680.722 19.0438 671.308 34.8455C647.149 75.0983 587.666 93.4782 494.692 89.403C476.947 88.6545 465.117 96.1395 458.536 112.357C452.787 126.412 451.621 145.125 450.538 163.255C448.955 189.286 447.372 213.821 432.793 221.306C420.88 227.46 401.052 221.638 371.977 203.591C348.817 189.203 329.323 184.213 312.411 188.372C285.002 195.025 267.674 223.967 247.679 257.566C237.182 275.198 226.269 293.411 212.939 310.045C199.943 326.262 185.197 330.005 169.035 321.355C151.207 311.791 132.046 286.592 117.966 253.907C105.053 223.967 99.3883 194.36 103.887 180.221C108.719 165.251 123.132 162.091 141.46 158.182C156.789 154.855 174.117 151.113 189.613 139.303C207.524 125.664 219.437 103.874 225.936 72.6864C234.017 34.0138 252.678 12.8894 286.502 4.15691C300.664 0.49757 317.243 -0.833099 335.654 -0.833099C357.981 -0.833099 383.224 1.16291 410.383 3.24208C443.957 5.82025 481.946 8.81426 522.851 8.81426C522.851 8.81426 522.851 8.81426 522.934 8.81426C523.101 8.81426 541.929 10.0618 562.506 7.06776C590.498 3.07575 608.326 -6.23895 615.658 -20.5437C623.572 -36.0959 618.49 -57.0539 600.495 -83.0852H597.496C615.824 -57.3866 621.156 -36.7612 613.575 -21.7912Z" fill="white"/>
<path d="M619.99 8.39843C606.327 25.4476 565.005 32.5168 500.607 28.8575C451.704 26.113 406.384 18.0458 405.967 17.9626C405.718 17.8795 378.059 12.9726 346.901 19.0438C328.49 22.5368 312.494 29.107 299.248 38.588C282.669 50.3977 270.423 66.6984 262.925 86.9912C248.429 126.329 232.184 153.192 213.189 169.16C196.694 183.049 180.615 186.708 165.619 189.286C143.709 193.029 136.294 207.001 133.962 218.062C129.296 239.686 140.543 268.877 158.038 280.604C162.787 283.764 167.619 285.344 172.284 285.344C176.616 285.344 180.865 284.014 184.864 281.269C201.276 270.125 218.104 248.668 235.933 226.046C269.84 182.883 304.913 138.305 340.153 160.677C345.318 163.921 350.317 167.164 355.065 170.324C380.891 187.207 401.385 200.597 414.298 194.276C421.963 190.534 426.295 180.637 427.878 163.006C431.127 126.579 437.125 99.1335 455.87 83.6645C469.199 72.6033 488.194 68.5281 514.02 71.0231C586.333 78.0923 633.986 65.2846 655.73 33.099C673.141 7.31727 670.142 -26.199 664.56 -49.8184C661.395 -63.2083 657.062 -75.018 653.647 -83.2515H650.981C654.397 -75.1011 658.895 -63.0419 662.144 -49.2362C667.559 -26.1158 670.475 6.65193 653.647 31.6852C632.486 63.0391 585.583 75.431 514.27 68.5281C487.777 65.9499 468.2 70.2746 454.287 81.7516C434.959 97.8029 428.711 125.747 425.379 162.839C423.879 179.306 419.963 188.871 413.215 192.114C401.552 197.769 381.641 184.795 356.482 168.328C351.65 165.168 346.651 161.925 341.486 158.681C324.741 148.036 306.662 150.697 286.252 166.831C268.423 180.803 250.928 203.092 234.017 224.632C216.355 247.171 199.61 268.378 183.531 279.356C174.117 285.76 165.286 282.517 159.454 278.608C142.709 267.38 131.962 239.353 136.378 218.644C138.627 208.332 145.542 195.274 166.036 191.781C181.365 189.12 197.777 185.378 214.772 171.073C234.1 154.772 250.595 127.577 265.258 87.8228C272.589 67.9459 284.502 52.0611 300.581 40.584C313.494 31.3525 329.239 24.9486 347.234 21.4556C358.898 19.2101 370.061 18.4616 379.475 18.4616C394.804 18.4616 405.301 20.3745 405.468 20.3745C405.884 20.4576 451.371 28.5248 500.441 31.2693C566.588 35.0118 607.493 27.8595 621.906 9.89544C636.152 -7.73594 639.484 -31.6048 631.486 -59.0499C628.737 -68.4478 625.155 -76.7645 621.989 -83.1683H619.157C622.406 -76.8476 626.238 -68.1983 629.07 -58.3846C634.486 -39.8384 637.235 -13.1418 619.99 8.39843Z" fill="white"/>
<path fill-rule="evenodd" clip-rule="evenodd" d="M353.316 41.3325C362.23 37.0079 372.144 36.093 381.308 38.8375C390.305 41.4989 397.053 47.0711 401.302 55.3878C414.298 80.421 402.802 124.416 394.804 148.368C392.721 154.689 390.139 158.016 386.723 158.764C386.223 158.847 385.723 158.931 385.223 158.931C379.674 158.931 373.3 152.435 365.366 144.35L365.229 144.21C357.648 136.475 349.067 127.743 338.737 121.589C321.492 111.276 312.994 99.7157 313.494 87.0743C314.41 65.0351 343.319 46.2394 353.316 41.3325ZM386.223 156.352C388.639 155.77 390.722 152.943 392.471 147.62C410.883 92.5634 404.551 66.948 399.053 56.6353C395.054 48.9839 388.806 43.8276 380.558 41.3325C377.309 40.3345 373.977 39.8355 370.561 39.8355C365.062 39.8355 359.564 41.083 354.399 43.578C344.735 48.3186 316.826 66.3658 315.993 87.1575C315.493 98.8009 323.658 109.696 340.07 119.426C350.551 125.606 359.561 134.805 366.856 142.254L367.062 142.464L367.156 142.56C374.947 150.503 381.66 157.346 386.223 156.352Z" fill="white"/>
<path fill-rule="evenodd" clip-rule="evenodd" d="M357.898 79.922C360.814 78.5082 364.063 78.1755 367.062 79.0903C369.978 80.0052 372.227 81.8348 373.727 84.6625C377.892 92.6465 374.31 106.369 371.811 113.854C371.394 115.268 370.561 117.181 368.728 117.597C368.478 117.68 368.312 117.68 368.062 117.68C365.999 117.68 364.018 115.64 361.39 112.934L361.314 112.856C359.064 110.527 356.482 107.866 353.399 106.036C347.817 102.71 345.068 98.884 345.235 94.6425C345.547 86.6938 356.319 80.7897 357.743 80.009C357.839 79.9566 357.893 79.9272 357.898 79.922ZM368.145 115.102C368.395 115.102 368.895 114.436 369.395 113.022C371.311 107.284 375.31 93.1455 371.561 85.7437C370.394 83.5813 368.728 82.1675 366.395 81.5022C365.479 81.2527 364.479 81.0863 363.563 81.0863C361.98 81.0863 360.48 81.419 358.981 82.1675C356.732 83.3318 347.984 88.7377 347.734 94.8089C347.567 97.9692 349.9 101.046 354.649 103.874C357.981 105.87 360.814 108.781 363.063 111.11C363.176 111.222 363.291 111.338 363.408 111.454C365.178 113.227 367.285 115.336 368.145 115.102Z" fill="white"/>
<path d="M1019.46 64.8688C987.635 75.93 965.558 108.199 953.978 160.76C948.646 185.045 935.316 200.348 914.406 206.253C875.25 217.397 812.601 191.781 768.864 146.622C733.791 110.527 719.711 70.8568 730.208 37.8395C739.956 7.23409 742.705 -26.0327 738.456 -60.8796C737.54 -68.1983 736.29 -75.6833 734.79 -83.1683H732.208C733.791 -75.517 735.04 -68.032 735.957 -60.5469C740.205 -26.0327 737.456 6.90143 727.876 37.1742C717.045 71.1063 731.375 111.609 767.114 148.451C787.942 169.909 814.101 187.956 840.843 199.266C859.838 207.334 878.166 211.409 894.328 211.409C901.826 211.409 908.824 210.494 915.156 208.747C936.649 202.676 950.979 186.292 956.477 161.342C967.89 109.696 989.301 78.0923 1020.29 67.2806C1064.45 51.8947 1121.01 80.8368 1167.17 114.353V111.276C1120.68 77.7596 1064.11 49.3997 1019.46 64.8688Z" fill="white"/>
<path d="M1034.37 -1.0826C1007.46 4.32325 986.968 22.2041 973.556 51.8947C954.978 92.9792 931.401 121.755 903.409 137.557C873.417 154.44 846.758 151.612 829.68 146.289C809.019 139.802 791.191 126.163 779.444 107.866C767.281 88.9872 762.782 66.6984 766.865 45.1582C775.279 0.41441 778.445 -42.7492 776.445 -83.1683H773.946C775.945 -42.9156 772.78 0.0817337 764.449 44.6592C760.283 66.8648 764.865 89.7357 777.362 109.114C789.441 127.909 807.77 141.881 829.013 148.535C837.928 151.362 847.092 152.693 856.256 152.693C872.668 152.693 889.246 148.285 904.659 139.636C933.15 123.585 957.06 94.393 975.888 52.8096C988.968 23.8675 1008.8 6.56875 1034.87 1.24607C1056.03 -2.99544 1081.44 0.830235 1108.35 12.4736C1129.43 21.5388 1150.75 35.1782 1167.17 50.065V46.7384C1133.26 16.9646 1078.61 -9.98146 1034.37 -1.0826Z" fill="white"/>
<path d="M1142.42 -4.40928C1114.02 -7.07062 1079.69 -18.0486 1048.2 -34.682C1011.71 -53.9768 981.22 -25.201 945.98 8.06576C919.154 33.4317 888.746 62.1242 851.09 72.5201C837.844 76.1795 827.597 74.2666 820.516 67.0311C796.439 42.1642 812.601 -39.2562 823.598 -83.1683H821.016C817.683 -69.7785 813.851 -53.0619 810.852 -35.5969C801.605 18.7111 804.27 53.8076 818.766 68.7776C824.015 74.1835 830.763 76.8448 838.927 76.8448C842.926 76.8448 847.175 76.1794 851.84 74.9319C889.996 64.4529 920.737 35.5108 947.73 9.89543C982.303 -22.706 1012.13 -50.8996 1047.03 -32.4365C1079.19 -15.3873 1113.02 -4.57561 1142.17 -1.91427C1151.25 -1.0826 1159.59 -1.0826 1167.17 -1.91427V-4.40928C1159.75 -3.57761 1151.42 -3.57761 1142.42 -4.40928Z" fill="white"/>
<path fill-rule="evenodd" clip-rule="evenodd" d="M649.731 134.895C649.065 128.242 658.145 120.424 676.64 111.525C688.803 105.704 703.299 107.533 713.38 116.266C721.377 123.169 730.042 132.982 725.71 141.133C722.377 147.453 711.797 150.78 697.718 150.78C688.304 150.78 677.307 149.283 665.81 146.206C655.396 143.461 650.148 139.719 649.731 134.895ZM666.476 143.794C693.052 150.947 718.628 149.2 723.543 139.968C726.293 134.646 722.294 127.161 711.797 118.179C705.965 113.272 698.717 110.694 691.386 110.694C686.721 110.694 682.055 111.692 677.723 113.771C660.811 121.921 651.731 129.323 652.23 134.646C652.564 138.222 657.479 141.382 666.476 143.794Z" fill="white"/>
</g>
</g>
</svg>
